<svg version="1.1" id="Layer_1" xmlns="http://www.w3.org/2000/svg" xmlns:xlink="http://www.w3.org/1999/xlink" x="0px" y="0px"
	 width="100%" viewBox="0 0 913 278" enable-background="new 0 0 913 278" xml:space="preserve">
<path fill="#010100" opacity="1.000000" stroke="none" 
	d="
M588.000000,279.000000 
	C392.000000,279.000000 196.500000,279.000000 1.000000,279.000000 
	C1.000000,186.333328 1.000000,93.666664 1.000000,1.000000 
	C305.333344,1.000000 609.666687,1.000000 914.000000,1.000000 
	C914.000000,93.666664 914.000000,186.333328 914.000000,279.000000 
	C805.500000,279.000000 697.000000,279.000000 588.000000,279.000000 
M494.456451,242.522003 
	C494.456451,242.522003 494.556274,242.670456 494.699738,242.990143 
	C494.831421,243.193954 495.012604,243.333542 495.332123,243.615967 
	C495.332123,243.615967 495.471832,243.792740 495.753479,244.225174 
	C496.149292,244.544006 496.545135,244.862839 497.077393,245.625977 
	C497.263702,245.912796 497.527802,246.051590 498.241241,246.639938 
	C502.169312,248.033264 506.097412,249.426605 510.948395,250.974228 
	C515.606750,251.099503 520.265076,251.332596 524.923523,251.334183 
	C624.457642,251.368271 723.991699,251.399261 823.525818,251.365646 
	C838.996704,251.360413 854.467407,251.036972 870.723511,250.998642 
	C882.052307,248.713776 887.289795,244.091080 888.863403,234.453674 
	C889.361328,231.404343 889.008667,228.216110 889.786011,224.624802 
	C889.857117,213.823563 889.994202,203.022278 889.987793,192.221085 
	C889.961365,147.830582 889.891357,103.440102 889.994751,58.207253 
	C889.112793,42.810055 884.182129,35.969738 871.031250,33.027615 
	C868.037720,32.939705 865.044128,32.775406 862.050598,32.774914 
	C750.359497,32.756538 638.668457,32.746841 526.977356,32.764931 
	C520.660767,32.765953 514.344177,33.011925 507.313538,33.016319 
	C505.803375,33.614899 504.293182,34.213474 502.899597,34.835300 
	C502.899597,34.835300 502.865845,34.721317 502.201324,34.839241 
	C501.099426,35.537624 499.997498,36.236004 498.968689,36.972206 
	C498.968689,36.972206 498.959595,36.890381 498.425690,37.031567 
	C498.217377,37.322750 498.009064,37.613937 497.922974,37.921177 
	C497.922974,37.921177 497.905060,37.799198 497.381195,37.989502 
	C497.176147,38.287350 496.971069,38.585194 496.906189,38.907471 
	C496.906189,38.907471 496.890045,38.766109 496.352570,38.971481 
	C496.143250,39.285713 495.933929,39.599945 495.301758,40.061474 
	C495.060547,40.273415 494.944611,40.539864 494.334229,41.237320 
	C490.539917,47.684429 489.881622,54.759953 490.028717,62.949730 
	C490.018280,88.709511 489.983307,114.469322 490.004120,140.229080 
	C490.026123,167.481628 490.101166,194.734131 490.002625,222.884521 
	C490.951141,228.319855 491.899689,233.755188 492.876068,239.076889 
	C492.876068,239.076889 492.760193,239.093216 492.860870,239.718399 
	C493.184784,240.214523 493.508698,240.710648 493.865204,241.101349 
	C493.865204,241.101349 493.756500,241.120453 493.856934,241.596542 
	C493.892456,241.950470 494.071014,242.203247 494.456451,242.522003 
M94.500000,83.002655 
	C106.931511,83.002655 119.363022,83.002655 131.717529,83.002655 
	C131.717529,73.404327 131.717529,64.342575 131.717529,55.442631 
	C95.380363,55.442631 59.344410,55.442631 23.462967,55.442631 
	C23.462967,110.175438 23.462967,164.538193 23.462967,218.791687 
	C35.090557,218.791687 46.366348,218.791687 58.155846,218.791687 
	C58.155846,196.234589 58.155846,173.882523 58.155846,151.177765 
	C80.602425,151.177765 102.532166,151.177765 124.471596,151.177765 
	C124.471596,142.037704 124.471596,133.261459 124.471596,123.949203 
	C102.263351,123.949203 80.231392,123.949203 58.293571,123.949203 
	C58.293571,110.009010 58.293571,96.608894 58.293571,83.002640 
	C70.222359,83.002640 81.861176,83.002640 94.500000,83.002655 
M199.195465,121.340744 
	C206.074402,121.230789 213.027542,120.456444 219.809631,121.213829 
	C225.596085,121.860023 227.946259,125.665924 228.105804,131.287537 
	C228.316360,138.705688 226.384506,142.267288 220.392807,143.946091 
	C215.487061,145.320618 210.359604,145.881149 205.384079,147.034042 
	C194.345261,149.591919 182.880814,151.114288 172.416702,155.184494 
	C150.527390,163.698792 145.238770,192.685272 161.855026,209.388489 
	C173.672379,221.267731 188.563797,222.141510 203.944458,220.476151 
	C212.354767,219.565506 219.302658,215.502884 224.562073,208.851761 
	C226.409912,206.514938 227.797470,203.814163 230.026398,200.278244 
	C230.026398,207.233307 230.026398,212.958847 230.026398,218.634766 
	C240.534103,218.634766 250.741150,218.634766 260.996063,218.634766 
	C260.996063,191.107315 261.487610,163.934555 260.820801,136.790222 
	C260.386383,119.106613 254.558746,106.628082 233.939682,100.392502 
	C217.740753,95.493652 201.274887,95.371002 185.041504,100.988792 
	C169.639618,106.318832 160.374268,116.746590 158.064850,133.408997 
	C168.374039,133.408997 178.445267,133.408997 188.465195,133.408997 
	C190.636368,126.851593 192.569672,124.650810 199.195465,121.340744 
M332.810730,256.426727 
	C342.031799,250.865585 346.605591,241.934586 350.056213,232.294495 
	C362.410980,197.778717 374.674988,163.230438 386.975525,128.695251 
	C390.439972,118.968498 393.911957,109.244423 397.492401,99.205307 
	C385.840485,99.205307 374.749390,99.205307 363.527344,99.205307 
	C354.504089,129.164459 345.523743,158.981110 336.407166,189.250046 
	C335.801483,188.345947 335.300781,187.870300 335.123444,187.294983 
	C326.403107,159.002655 317.731384,130.695267 308.947601,102.422668 
	C308.546417,101.131226 307.185303,99.185173 306.234436,99.163589 
	C295.869049,98.928246 285.496368,99.016273 274.690674,99.016273 
	C288.835052,139.286743 302.703827,178.809052 316.603943,218.320358 
	C319.823761,227.472702 315.659027,235.270416 305.953186,237.024155 
	C301.846832,237.766144 297.494659,237.147888 293.474213,237.147888 
	C291.092834,245.090424 288.778717,252.808685 286.367981,260.849243 
	C302.116302,264.373596 317.499786,264.893372 332.810730,256.426727 
M418.000610,149.500000 
	C418.000610,172.583740 418.000610,195.667480 418.000610,218.727051 
	C429.274811,218.727051 440.006927,218.727051 450.711731,218.727051 
	C450.711731,164.086533 450.711731,109.718636 450.711731,55.341797 
	C439.705170,55.341797 428.979950,55.341797 418.000580,55.341797 
	C418.000580,86.592575 418.000580,117.546288 418.000610,149.500000 
z"/>
<path fill="#F69600" opacity="1.000000" stroke="none" 
	d="
M871.953308,33.178089 
	C884.182129,35.969738 889.112793,42.810055 889.653687,58.943825 
	C889.209229,60.666447 889.015503,61.652493 889.015503,62.638538 
	C889.015137,116.789505 889.031067,170.940475 889.045288,225.091446 
	C889.008667,228.216110 889.361328,231.404343 888.863403,234.453674 
	C887.289795,244.091080 882.052307,248.713776 870.045471,250.670929 
	C867.238892,250.222427 865.110352,250.101624 862.687866,249.687653 
	C860.916138,249.263428 859.438354,249.017868 857.960571,249.017639 
	C747.715210,248.999557 637.469849,248.996429 527.224487,249.040802 
	C525.492493,249.041504 523.760742,249.645264 521.648438,249.985474 
	C520.506775,249.993881 519.745483,249.984390 518.898254,249.813431 
	C518.546692,249.760178 518.281128,249.868423 517.571411,249.993469 
	C514.757507,250.020004 512.387634,250.029709 509.772522,249.755066 
	C505.641449,248.327927 501.755554,247.185150 497.869690,246.042358 
	C497.527802,246.051590 497.263702,245.912796 496.994690,245.060501 
	C496.431915,244.260925 495.951874,244.026840 495.471832,243.792740 
	C495.471832,243.792740 495.332123,243.615967 495.432587,243.242630 
	C495.207458,242.803009 494.881866,242.736725 494.556274,242.670441 
	C494.556274,242.670456 494.456451,242.522003 494.530212,242.164383 
	C494.321472,241.577988 494.038971,241.349228 493.756500,241.120453 
	C493.756500,241.120453 493.865204,241.101349 493.879517,240.819061 
	C493.515961,240.055573 493.138092,239.574387 492.760193,239.093216 
	C492.760193,239.093216 492.876068,239.076889 492.912781,238.686813 
	C492.296906,232.862930 491.644348,227.429138 490.993652,221.526978 
	C490.989807,168.041534 490.984131,115.024445 491.277344,61.719162 
	C492.702148,54.574242 493.828064,47.717525 494.953979,40.860813 
	C494.944611,40.539864 495.060547,40.273415 495.792114,39.896912 
	C496.484985,39.410275 496.687531,39.088196 496.890045,38.766113 
	C496.890045,38.766109 496.906189,38.907471 497.110291,38.818085 
	C497.511261,38.418861 497.708160,38.109028 497.905060,37.799198 
	C497.905060,37.799198 497.922974,37.921177 498.125641,37.836594 
	C498.538727,37.464798 498.749146,37.177586 498.959595,36.890373 
	C498.959595,36.890381 498.968689,36.972206 499.300629,36.971207 
	C500.710327,36.220585 501.788086,35.470959 502.865845,34.721329 
	C502.865845,34.721317 502.899597,34.835300 503.245605,34.884308 
	C505.062958,34.616043 506.534302,34.298767 508.344635,33.983452 
	C509.135162,34.004349 509.586731,34.023289 510.331726,34.331776 
	C512.104065,34.747810 513.582947,34.984825 515.061829,34.985039 
	C631.294922,35.001698 747.527954,35.003952 863.761047,34.959629 
	C865.494568,34.958969 867.227783,34.362576 869.287720,34.025696 
	C870.393921,33.730820 871.173645,33.454456 871.953308,33.178089 
M679.435242,183.633667 
	C679.435242,183.633667 679.277222,183.516098 679.507263,182.891571 
	C678.965210,182.619507 678.423157,182.347443 677.970520,182.028793 
	C677.970520,182.028793 677.924744,182.118622 677.926880,181.436874 
	C677.229126,180.646317 676.531311,179.855759 675.921448,179.058350 
	C675.921448,179.058350 675.898438,179.143478 675.956482,178.419724 
	C675.334778,176.961990 674.713135,175.504272 673.806824,173.300461 
	C673.587036,171.185806 673.367310,169.071152 673.681641,166.330872 
	C673.786987,146.554306 673.892273,126.777733 673.971619,106.187416 
	C672.752075,105.456902 671.548035,104.126183 670.310364,104.094070 
	C662.743286,103.897720 655.160461,104.206329 647.599365,103.916039 
	C643.151672,103.745277 641.889954,105.416710 641.922729,109.710037 
	C642.089844,131.658707 641.914734,153.610046 642.096191,175.558472 
	C642.122192,178.699219 643.437744,181.829315 644.065979,184.968140 
	C644.065979,184.968140 644.083984,184.879410 644.032959,185.641006 
	C644.868591,187.424393 645.704224,189.207764 646.958191,191.610031 
	C649.770874,198.145737 653.213562,203.612854 660.025085,207.413071 
	C677.959717,217.419022 697.908447,214.939667 712.458313,200.358353 
	C713.325562,204.252777 714.192871,208.147202 715.640320,212.619080 
	C720.063965,212.743088 724.491089,213.034821 728.910400,212.945297 
	C733.598511,212.850311 738.279297,212.393280 742.986023,211.507828 
	C742.969910,211.312836 742.953796,211.117828 743.004578,210.923065 
	C743.004578,210.923065 743.023926,210.987167 743.608765,210.395950 
	C743.734680,209.751099 743.970459,209.106308 743.970764,208.461395 
	C743.988220,175.213318 743.995972,141.965195 743.944763,108.717178 
	C743.942871,107.480263 743.346069,106.244263 742.427917,104.418358 
	C733.359436,104.418358 724.290894,104.418358 715.222412,104.418358 
	C715.222900,104.619118 715.223450,104.819885 715.223999,105.020645 
	C724.485962,105.020645 733.747986,105.020645 743.064270,105.520172 
	C743.046143,105.686684 743.028076,105.853188 742.086609,105.835831 
	C732.713440,105.835831 723.340271,105.835831 713.868042,105.835831 
	C713.868042,120.947403 713.922546,135.222229 713.836731,149.496231 
	C713.809021,154.111725 713.412903,158.725021 713.018616,162.363968 
	C713.018616,143.938797 713.018616,125.513611 713.018616,107.088432 
	C712.214844,107.641586 712.028625,108.227829 712.028015,108.814278 
	C712.008057,127.444267 711.991943,146.074310 712.037292,164.704193 
	C712.039917,165.790161 712.562256,166.874847 712.969849,168.726959 
	C711.503967,175.961166 707.703308,181.505997 700.278198,185.022949 
	C693.748901,184.804276 687.219543,184.585602 680.840149,184.430176 
	C680.840149,184.430176 680.678955,184.407822 680.635193,183.811340 
	C680.292786,183.783615 679.950378,183.755875 679.435242,183.633667 
M845.868530,109.183319 
	C845.868530,109.183319 845.824829,109.357079 845.652222,108.706009 
	C845.046143,108.508751 844.440002,108.311493 843.935364,108.088959 
	C843.935364,108.088959 843.926880,108.193184 843.712708,107.513618 
	C842.720581,107.205383 841.728394,106.897148 840.612671,106.562714 
	C840.612671,106.562714 840.486816,106.551628 840.548523,105.796638 
	C833.378174,101.495247 825.493530,100.171082 817.439514,101.515373 
	C812.854919,102.280579 808.530640,104.604660 804.075500,106.111549 
	C804.075500,106.111549 804.188171,106.139015 803.520813,106.098106 
	C803.039795,106.476837 802.558777,106.855568 802.070618,107.107811 
	C802.070618,107.107811 802.193115,107.140022 801.487427,107.097694 
	C800.677063,107.810043 799.866638,108.522392 798.836426,109.759697 
	C798.229126,110.187614 797.621826,110.615532 796.772705,110.707672 
	C796.636658,110.703033 796.500671,110.698395 796.364624,110.693764 
	C796.450928,110.945053 796.537170,111.196350 796.500610,111.512901 
	C796.500610,111.512901 796.395325,111.603889 795.598877,111.123871 
	C795.065979,109.347420 794.092834,107.576210 794.071594,105.793686 
	C793.932800,94.135345 794.079468,82.473381 793.907715,70.815926 
	C793.884094,69.209923 792.615051,67.622261 790.997559,65.952469 
	C782.061768,65.952469 773.125977,65.952469 764.196289,65.952469 
	C764.196289,114.678398 764.196289,162.850433 764.196289,210.884064 
	C773.259583,210.884064 781.984863,210.884064 790.688660,210.884064 
	C790.961975,207.092041 791.210144,203.649307 791.536926,199.115402 
	C793.998291,201.168167 795.275391,202.439102 796.745300,203.421448 
	C801.590759,206.659622 806.136536,210.838089 811.479187,212.727264 
	C819.907959,215.707642 828.599365,214.902618 837.076355,211.163101 
	C851.943115,204.604813 860.263306,192.757538 865.973328,177.800095 
	C866.495300,176.819534 867.420593,175.861328 867.476318,174.854965 
	C867.993591,165.514481 868.518799,156.167755 868.642212,146.817612 
	C868.667542,144.895447 867.029419,142.951340 865.983215,140.222397 
	C863.859741,129.611969 858.183167,120.983902 850.737793,112.690643 
	C850.420227,112.490425 850.102661,112.290207 849.930420,112.084602 
	C849.930420,112.084602 849.902588,112.227318 849.726746,111.559959 
	C848.777466,111.064407 847.828125,110.568848 846.957397,110.049538 
	C846.957397,110.049538 846.956116,110.131645 846.722046,109.610474 
	C846.378357,109.476128 846.034668,109.341782 845.868530,109.183319 
M564.165771,108.215813 
	C564.165771,108.215813 564.307312,108.283813 563.649292,108.140289 
	C563.095459,108.426117 562.541565,108.711937 561.358765,109.273605 
	C560.662476,110.285179 559.966125,111.296761 559.192322,112.205269 
	C559.192322,112.205269 559.321228,112.204704 558.733643,112.312019 
	C558.558289,112.648918 558.382874,112.985825 558.214966,113.201004 
	C558.214966,113.201004 558.299744,113.288658 557.479248,112.979599 
	C556.987000,111.197868 556.085022,109.420006 556.068054,107.633774 
	C555.945557,94.679848 555.941528,81.723778 556.042419,68.769485 
	C556.068298,65.455399 555.014832,63.878006 551.467712,63.951733 
	C544.162903,64.103554 536.851013,63.917633 529.546509,64.076859 
	C528.359497,64.102737 527.195679,65.186584 525.632629,66.025719 
	C525.632629,66.025719 525.176514,66.076050 524.576416,66.028412 
	C524.375916,66.020401 524.175354,66.012398 523.394897,66.601074 
	C523.263367,67.578102 523.017334,68.555084 523.016907,69.532173 
	C522.997864,114.947296 522.991577,160.362442 523.040588,205.777512 
	C523.042053,207.175095 523.643921,208.572006 524.220703,210.430359 
	C524.519409,210.603821 524.818054,210.777298 525.036316,210.916046 
	C525.036316,210.916046 525.086548,210.844238 525.195374,211.667328 
	C526.658447,212.113129 528.114380,212.914139 529.585876,212.943985 
	C536.402588,213.082245 543.234253,212.774353 550.039185,213.088699 
	C554.593262,213.299057 556.147705,211.819199 556.094116,207.147522 
	C555.872803,187.856049 556.021240,168.560486 555.966797,149.266617 
	C555.962830,147.851532 555.427124,146.437973 555.051270,144.272232 
	C556.673950,137.415253 560.433167,131.856537 566.793152,128.997696 
	C578.220215,123.861176 592.513123,129.117325 593.341309,144.565552 
	C593.216125,146.055511 593.090942,147.545471 592.383789,149.620941 
	C592.258423,150.264603 592.024231,150.908157 592.023438,151.551956 
	C592.002197,170.138535 591.985901,188.725189 592.044556,207.311584 
	C592.048401,208.540405 592.651794,209.767334 593.455017,211.005798 
	C593.455017,211.005798 593.933838,211.004272 594.440002,211.039230 
	C594.609070,211.036560 594.778137,211.033905 594.999573,211.000900 
	C594.999573,211.000900 594.969116,211.053177 594.971985,211.568466 
	C594.989014,211.739395 595.005981,211.910324 595.633362,212.632050 
	C600.719849,212.751740 605.808777,213.026123 610.892029,212.943985 
	C615.254639,212.873520 619.610718,212.395401 624.020630,211.552536 
	C624.014832,211.370178 624.008972,211.187805 624.000000,211.000000 
	C624.000000,211.000000 624.004700,211.002914 624.483521,211.005936 
	C624.483521,211.005936 624.962219,210.996353 625.574463,210.425171 
	C625.688965,210.115997 625.903198,209.806992 625.903748,209.497604 
	C625.942383,186.278015 626.064148,163.057526 625.862488,139.839844 
	C625.836853,136.893372 624.110657,133.961639 622.988831,130.226990 
	C622.243469,121.609688 616.454224,116.060120 610.742920,109.664856 
	C609.762512,109.158043 608.782043,108.651230 607.917053,108.114113 
	C607.917053,108.114113 607.904175,108.232727 607.717529,107.538742 
	C598.200745,99.108749 577.557861,100.021927 567.539978,105.300758 
	C566.896057,105.640068 566.555359,106.554886 566.062927,107.092796 
	C566.062927,107.092796 566.169983,107.116386 565.492676,107.094803 
	C565.055176,107.520599 564.617676,107.946396 564.165771,108.215813 
M762.965088,154.500000 
	C762.965088,125.442551 762.965088,96.385101 762.965088,67.327652 
	C762.736389,67.329674 762.507751,67.331688 762.279053,67.333710 
	C762.279053,114.849701 762.279053,162.365692 762.279053,209.881683 
	C762.507812,209.882309 762.736572,209.882935 762.965332,209.883575 
	C762.965332,191.755722 762.965332,173.627853 762.965088,154.500000 
M786.092590,64.982109 
	C787.377014,64.922783 788.661499,64.863457 789.945923,64.804123 
	C789.941467,64.626213 789.937012,64.448311 789.932495,64.270401 
	C781.636780,64.270401 773.341125,64.270401 765.045410,64.270401 
	C765.041260,64.507431 765.037170,64.744469 765.033020,64.981499 
	C771.751709,64.981499 778.470398,64.981499 786.092590,64.982109 
M769.815430,212.993179 
	C776.477112,212.993179 783.138855,212.993179 789.800537,212.993179 
	C789.794983,212.761429 789.789368,212.529678 789.783752,212.297928 
	C781.536560,212.297928 773.289307,212.297928 765.042053,212.297928 
	C765.038147,212.462646 765.034241,212.627380 765.030273,212.792099 
	C766.328064,212.859009 767.625793,212.925919 769.815430,212.993179 
z"/>
<path fill="#FDFDFD" opacity="1.000000" stroke="none" 
	d="
M94.000000,83.002647 
	C81.861176,83.002640 70.222359,83.002640 58.293571,83.002640 
	C58.293571,96.608894 58.293571,110.009010 58.293571,123.949203 
	C80.231392,123.949203 102.263351,123.949203 124.471596,123.949203 
	C124.471596,133.261459 124.471596,142.037704 124.471596,151.177765 
	C102.532166,151.177765 80.602425,151.177765 58.155846,151.177765 
	C58.155846,173.882523 58.155846,196.234589 58.155846,218.791687 
	C46.366348,218.791687 35.090557,218.791687 23.462967,218.791687 
	C23.462967,164.538193 23.462967,110.175438 23.462967,55.442631 
	C59.344410,55.442631 95.380363,55.442631 131.717529,55.442631 
	C131.717529,64.342575 131.717529,73.404327 131.717529,83.002655 
	C119.363022,83.002655 106.931511,83.002655 94.000000,83.002647 
z"/>
<path fill="#FDFDFD" opacity="1.000000" stroke="none" 
	d="
M198.877228,121.580231 
	C192.569672,124.650810 190.636368,126.851593 188.465195,133.408997 
	C178.445267,133.408997 168.374039,133.408997 158.064850,133.408997 
	C160.374268,116.746590 169.639618,106.318832 185.041504,100.988792 
	C201.274887,95.371002 217.740753,95.493652 233.939682,100.392502 
	C254.558746,106.628082 260.386383,119.106613 260.820801,136.790222 
	C261.487610,163.934555 260.996063,191.107315 260.996063,218.634766 
	C250.741150,218.634766 240.534103,218.634766 230.026398,218.634766 
	C230.026398,212.958847 230.026398,207.233307 230.026398,200.278244 
	C227.797470,203.814163 226.409912,206.514938 224.562073,208.851761 
	C219.302658,215.502884 212.354767,219.565506 203.944458,220.476151 
	C188.563797,222.141510 173.672379,221.267731 161.855026,209.388489 
	C145.238770,192.685272 150.527390,163.698792 172.416702,155.184494 
	C182.880814,151.114288 194.345261,149.591919 205.384079,147.034042 
	C210.359604,145.881149 215.487061,145.320618 220.392807,143.946091 
	C226.384506,142.267288 228.316360,138.705688 228.105804,131.287537 
	C227.946259,125.665924 225.596085,121.860023 219.809631,121.213829 
	C213.027542,120.456444 206.074402,121.230789 198.877228,121.580231 
M195.010361,197.879974 
	C196.475174,198.159576 197.936768,198.457535 199.405319,198.715912 
	C212.880081,201.086731 227.178558,191.654129 227.920670,179.661789 
	C228.275665,173.925186 227.981766,168.148422 227.981766,162.300766 
	C224.854538,163.346588 222.125229,164.504135 219.280411,165.163071 
	C211.891388,166.874542 204.418457,168.227936 197.041656,169.986969 
	C190.135880,171.633698 185.615067,176.645309 185.015564,182.772964 
	C184.379288,189.276459 187.546768,194.322647 195.010361,197.879974 
z"/>
<path fill="#FDFDFD" opacity="1.000000" stroke="none" 
	d="
M332.501282,256.632690 
	C317.499786,264.893372 302.116302,264.373596 286.367981,260.849243 
	C288.778717,252.808685 291.092834,245.090424 293.474213,237.147888 
	C297.494659,237.147888 301.846832,237.766144 305.953186,237.024155 
	C315.659027,235.270416 319.823761,227.472702 316.603943,218.320358 
	C302.703827,178.809052 288.835052,139.286743 274.690674,99.016273 
	C285.496368,99.016273 295.869049,98.928246 306.234436,99.163589 
	C307.185303,99.185173 308.546417,101.131226 308.947601,102.422668 
	C317.731384,130.695267 326.403107,159.002655 335.123444,187.294983 
	C335.300781,187.870300 335.801483,188.345947 336.407166,189.250046 
	C345.523743,158.981110 354.504089,129.164459 363.527344,99.205307 
	C374.749390,99.205307 385.840485,99.205307 397.492401,99.205307 
	C393.911957,109.244423 390.439972,118.968498 386.975525,128.695251 
	C374.674988,163.230438 362.410980,197.778717 350.056213,232.294495 
	C346.605591,241.934586 342.031799,250.865585 332.501282,256.632690 
z"/>
<path fill="#FEFEFE" opacity="1.000000" stroke="none" 
	d="
M418.000610,149.000000 
	C418.000580,117.546288 418.000580,86.592575 418.000580,55.341797 
	C428.979950,55.341797 439.705170,55.341797 450.711731,55.341797 
	C450.711731,109.718636 450.711731,164.086533 450.711731,218.727051 
	C440.006927,218.727051 429.274811,218.727051 418.000610,218.727051 
	C418.000610,195.667480 418.000610,172.583740 418.000610,149.000000 
z"/>
<path fill="#FFCD00" opacity="1.000000" stroke="none" 
	d="
M510.038269,34.042225 
	C509.586731,34.023289 509.135162,34.004349 508.347198,33.774071 
	C508.010773,33.562733 508.027618,33.143890 508.027618,33.143890 
	C514.344177,33.011925 520.660767,32.765953 526.977356,32.764931 
	C638.668457,32.746841 750.359497,32.756538 862.050598,32.774914 
	C865.044128,32.775406 868.037720,32.939705 871.492310,33.102852 
	C871.173645,33.454456 870.393921,33.730820 868.823853,34.010239 
	C748.701660,34.022938 629.369995,34.032581 510.038269,34.042225 
z"/>
<path fill="#FFCB00" opacity="1.000000" stroke="none" 
	d="
M862.981812,249.980804 
	C865.110352,250.101624 867.238892,250.222427 869.652832,250.601959 
	C854.467407,251.036972 838.996704,251.360413 823.525818,251.365646 
	C723.991699,251.399261 624.457642,251.368271 524.923523,251.334183 
	C520.265076,251.332596 515.606750,251.099503 510.485077,250.701950 
	C510.021759,250.429672 510.017731,250.039429 510.017731,250.039429 
	C512.387634,250.029709 514.757507,250.020004 517.813538,250.000305 
	C518.499695,249.990341 518.984192,249.974915 518.984192,249.974915 
	C519.745483,249.984390 520.506775,249.993881 522.113586,249.995880 
	C636.299988,249.985855 749.640930,249.983322 862.981812,249.980804 
z"/>
<path fill="#FFC500" opacity="1.000000" stroke="none" 
	d="
M889.415649,224.858124 
	C889.031067,170.940475 889.015137,116.789505 889.015503,62.638538 
	C889.015503,61.652493 889.209229,60.666447 889.574951,59.365005 
	C889.891357,103.440102 889.961365,147.830582 889.987793,192.221085 
	C889.994202,203.022278 889.857117,213.823563 889.415649,224.858124 
z"/>
<path fill="#FEC600" opacity="1.000000" stroke="none" 
	d="
M490.978455,62.007366 
	C490.984131,115.024445 490.989807,168.041534 490.783966,221.527496 
	C490.572449,221.996368 490.153046,221.986664 490.153046,221.986664 
	C490.101166,194.734131 490.026123,167.481628 490.004120,140.229080 
	C489.983307,114.469322 490.018280,88.709511 490.301117,62.482025 
	C490.573517,62.014320 490.978455,62.007366 490.978455,62.007366 
z"/>
<path fill="#F3A701" opacity="1.000000" stroke="none" 
	d="
M491.277344,61.719162 
	C490.978455,62.007366 490.573517,62.014320 490.371094,62.019615 
	C489.881622,54.759953 490.539917,47.684429 494.644104,41.049065 
	C493.828064,47.717525 492.702148,54.574242 491.277344,61.719162 
z"/>
<path fill="#F3A701" opacity="1.000000" stroke="none" 
	d="
M490.077820,222.435593 
	C490.153046,221.986664 490.572449,221.996368 490.782104,221.995850 
	C491.644348,227.429138 492.296906,232.862930 492.898834,238.743622 
	C491.899689,233.755188 490.951141,228.319855 490.077820,222.435593 
z"/>
<path fill="#F3A701" opacity="1.000000" stroke="none" 
	d="
M509.772522,249.755066 
	C510.017731,250.039429 510.021759,250.429672 510.023621,250.624817 
	C506.097412,249.426605 502.169312,248.033264 498.055481,246.341156 
	C501.755554,247.185150 505.641449,248.327927 509.772522,249.755066 
z"/>
<path fill="#F3A701" opacity="1.000000" stroke="none" 
	d="
M507.670593,33.080105 
	C508.027618,33.143890 508.010773,33.562733 508.008209,33.772110 
	C506.534302,34.298767 505.062958,34.616043 503.187317,34.872688 
	C504.293182,34.213474 505.803375,33.614899 507.670593,33.080105 
z"/>
<path fill="#F3A701" opacity="1.000000" stroke="none" 
	d="
M502.533569,34.780289 
	C501.788086,35.470959 500.710327,36.220585 499.264069,36.952297 
	C499.997498,36.236004 501.099426,35.537624 502.533569,34.780289 
z"/>
<path fill="#F3A701" opacity="1.000000" stroke="none" 
	d="
M495.612671,244.008957 
	C495.951874,244.026840 496.431915,244.260925 496.926453,244.838348 
	C496.545135,244.862839 496.149292,244.544006 495.612671,244.008957 
z"/>
<path fill="#F3A701" opacity="1.000000" stroke="none" 
	d="
M492.810547,239.405807 
	C493.138092,239.574387 493.515961,240.055573 493.863220,240.871765 
	C493.508698,240.710648 493.184784,240.214523 492.810547,239.405807 
z"/>
<path fill="#F3A701" opacity="1.000000" stroke="none" 
	d="
M498.692627,36.960968 
	C498.749146,37.177586 498.538727,37.464798 498.064545,37.828568 
	C498.009064,37.613937 498.217377,37.322750 498.692627,36.960968 
z"/>
<path fill="#F3A701" opacity="1.000000" stroke="none" 
	d="
M497.643127,37.894348 
	C497.708160,38.109028 497.511261,38.418861 497.040192,38.805870 
	C496.971069,38.585194 497.176147,38.287350 497.643127,37.894348 
z"/>
<path fill="#F3A701" opacity="1.000000" stroke="none" 
	d="
M494.627991,242.830292 
	C494.881866,242.736725 495.207458,242.803009 495.388153,243.139114 
	C495.012604,243.333542 494.831421,243.193954 494.627991,242.830292 
z"/>
<path fill="#F3A701" opacity="1.000000" stroke="none" 
	d="
M493.806702,241.358490 
	C494.038971,241.349228 494.321472,241.577988 494.498230,242.080811 
	C494.071014,242.203247 493.892456,241.950470 493.806702,241.358490 
z"/>
<path fill="#F3A701" opacity="1.000000" stroke="none" 
	d="
M496.621307,38.868797 
	C496.687531,39.088196 496.484985,39.410275 496.003540,39.823265 
	C495.933929,39.599945 496.143250,39.285713 496.621307,38.868797 
z"/>
<path fill="#010100" opacity="1.000000" stroke="none" 
	d="
M797.014526,111.043457 
	C797.621826,110.615532 798.229126,110.187614 799.252625,109.393509 
	C800.510254,108.398209 801.351685,107.769104 802.193115,107.140015 
	C802.193115,107.140022 802.070618,107.107811 802.384583,107.112900 
	C803.195068,106.791656 803.691589,106.465324 804.188171,106.139008 
	C804.188171,106.139015 804.075500,106.111549 804.469482,106.101334 
	C816.797852,101.605927 828.673096,101.698334 840.486816,106.551628 
	C840.486816,106.551628 840.612671,106.562714 840.893188,106.772842 
	C842.091370,107.386368 843.009155,107.789772 843.926880,108.193176 
	C843.926880,108.193184 843.935364,108.088959 844.032776,108.372131 
	C844.695068,108.889229 845.259949,109.123154 845.824829,109.357086 
	C845.824829,109.357079 845.868530,109.183319 845.899963,109.448380 
	C846.272949,109.852844 846.614563,109.992241 846.956116,110.131645 
	C846.956116,110.131645 846.957397,110.049538 847.066772,110.342651 
	C848.085022,111.166290 848.993774,111.696808 849.902588,112.227325 
	C849.902588,112.227318 849.930420,112.084602 849.955933,112.356674 
	C850.296814,112.831429 850.612183,113.034111 850.927551,113.236786 
	C858.183167,120.983902 863.859741,129.611969 866.005615,141.021484 
	C869.252258,153.942871 868.488953,165.983200 865.284729,177.973328 
	C860.263306,192.757538 851.943115,204.604813 837.076355,211.163101 
	C828.599365,214.902618 819.907959,215.707642 811.479187,212.727264 
	C806.136536,210.838089 801.590759,206.659622 796.745300,203.421448 
	C795.275391,202.439102 793.998291,201.168167 791.536926,199.115402 
	C791.210144,203.649307 790.961975,207.092041 790.688660,210.884064 
	C781.984863,210.884064 773.259583,210.884064 764.196289,210.884064 
	C764.196289,162.850433 764.196289,114.678398 764.196289,65.952469 
	C773.125977,65.952469 782.061768,65.952469 791.495972,66.454971 
	C791.994324,83.285706 791.994324,99.613937 791.994324,116.837692 
	C793.899170,114.572380 795.147278,113.088135 796.395325,111.603897 
	C796.395325,111.603889 796.500610,111.512901 796.697571,111.416954 
	C796.894531,111.321007 797.014526,111.043465 797.014526,111.043457 
M804.406738,186.168304 
	C804.406738,186.168304 804.867004,186.246475 804.905640,186.147644 
	C804.905640,186.147644 804.800171,186.159393 805.267822,186.755035 
	C811.656860,188.968613 817.989929,189.310471 824.087769,186.172058 
	C824.087769,186.172058 824.125916,186.299301 824.745056,186.188446 
	C825.226196,185.836823 825.707336,185.485184 826.080505,185.103210 
	C826.080505,185.103210 826.090393,185.214890 826.627991,185.078842 
	C826.879761,184.832962 827.131531,184.587082 827.387939,184.442062 
	C827.387939,184.442062 827.488708,184.448029 827.819946,184.322678 
	C827.819946,184.322678 828.004944,184.020645 828.648315,183.831345 
	C830.081299,181.882355 831.514282,179.933380 833.395813,177.414520 
	C839.086670,164.182312 838.929626,151.049850 832.577698,137.411713 
	C831.640320,136.123032 830.702881,134.834351 829.610229,133.328400 
	C829.610229,133.328400 829.373413,133.204880 829.240173,132.944260 
	C829.119446,132.782913 828.963318,132.670746 828.653381,132.362656 
	C828.653381,132.362656 828.433716,132.201859 828.090637,131.753784 
	C827.416382,131.450073 826.742126,131.146362 826.050903,130.937805 
	C826.050903,130.937805 826.147278,130.930344 825.968323,130.409683 
	C825.667236,130.223846 825.366089,130.038025 825.051147,129.943390 
	C825.051147,129.943390 825.133362,129.901520 824.711121,129.282150 
	C817.130676,125.901352 809.767395,125.816360 802.894165,130.807968 
	C802.894165,130.807968 802.779785,130.671005 802.231873,130.805527 
	C801.671082,131.270920 801.110352,131.736313 800.308411,132.367691 
	C800.308411,132.367691 800.187012,132.634079 799.939392,132.767532 
	C799.787170,132.885406 799.677917,133.034729 799.354431,133.343048 
	C799.354431,133.343048 799.198853,133.584412 798.792969,133.952103 
	C798.448730,134.593155 798.104492,135.234192 797.860413,135.897659 
	C797.860413,135.897659 797.829956,135.799713 797.223938,136.172012 
	C792.815918,143.813538 792.004028,152.266388 792.413574,160.752975 
	C792.787048,168.490814 793.318359,176.431320 799.458130,182.569794 
	C799.458130,182.569794 799.527039,182.697189 799.834900,183.153458 
	C800.417664,183.587433 801.000427,184.021423 801.560364,184.367630 
	C801.560364,184.367630 801.628357,184.427689 801.925354,184.858795 
	C802.256165,184.966370 802.587036,185.073944 802.962402,185.103165 
	C802.962402,185.103165 802.872253,185.103912 803.061401,185.598373 
	C803.376709,185.707718 803.692078,185.817078 804.406738,186.168304 
z"/>
<path fill="#020100" opacity="1.000000" stroke="none" 
	d="
M593.845947,144.025391 
	C592.513123,129.117325 578.220215,123.861176 566.793152,128.997696 
	C560.433167,131.856537 556.673950,137.415253 554.999390,145.058075 
	C554.643616,149.479736 554.098877,153.114151 554.077393,156.751648 
	C553.980408,173.222626 554.031250,189.694473 554.028931,206.166016 
	C554.028687,207.771118 554.028931,209.376221 554.028931,210.844238 
	C543.981506,210.844238 534.534058,210.844238 525.086548,210.844238 
	C525.086548,210.844238 525.036316,210.916046 525.088257,210.468842 
	C525.152283,162.039764 525.164429,114.057907 525.176514,66.076050 
	C525.176514,66.076050 525.632629,66.025719 526.290039,65.964676 
	C535.856689,65.903625 544.765930,65.903625 554.116577,65.903625 
	C554.116577,83.720749 554.116577,101.019501 554.116577,119.425194 
	C555.949829,116.735855 557.124817,115.012253 558.299744,113.288651 
	C558.299744,113.288658 558.214966,113.201004 558.475586,113.166115 
	C558.931274,112.822388 559.126282,112.513557 559.321228,112.204712 
	C559.321228,112.204704 559.192322,112.205269 559.523560,112.129272 
	C560.953247,111.053528 562.051697,110.053795 563.395020,109.009613 
	C563.998047,108.870949 564.220520,108.643829 564.307312,108.283813 
	C564.307312,108.283813 564.165771,108.215813 564.476685,108.224518 
	C565.248413,107.860939 565.709229,107.488663 566.169983,107.116386 
	C566.169983,107.116386 566.062927,107.092796 566.438354,107.068573 
	C580.699646,100.903488 594.393555,101.398155 607.904175,108.232727 
	C607.904175,108.232727 607.917053,108.114113 608.017639,108.413254 
	C609.047974,109.262619 609.977722,109.812859 610.907471,110.363091 
	C616.454224,116.060120 622.243469,121.609688 623.009277,131.043732 
	C623.406433,136.566620 623.783142,141.272781 624.067871,146.427292 
	C624.036316,149.921967 624.096802,152.968292 624.113953,156.341034 
	C624.099792,157.104630 624.129028,157.541763 624.065979,158.441162 
	C623.984009,176.269897 623.994385,193.636414 624.004761,211.002914 
	C624.004700,211.002914 624.000000,211.000000 623.534241,211.044403 
	C613.702026,211.076920 604.335571,211.065048 594.969116,211.053162 
	C594.969116,211.053177 594.999573,211.000900 594.953247,210.545578 
	C594.926331,191.106598 594.972412,172.122864 594.927612,153.139359 
	C594.922607,151.034607 594.399597,148.931076 594.117310,146.474274 
	C594.027161,145.422852 593.936523,144.724121 593.845947,144.025391 
z"/>
<path fill="#010100" opacity="1.000000" stroke="none" 
	d="
M701.151672,185.060333 
	C707.703308,181.505997 711.503967,175.961166 712.988281,167.962311 
	C713.066284,165.911545 713.125793,164.625443 713.185303,163.339325 
	C713.412903,158.725021 713.809021,154.111725 713.836731,149.496231 
	C713.922546,135.222229 713.868042,120.947403 713.868042,105.835831 
	C723.340271,105.835831 732.713440,105.835831 742.548767,106.394119 
	C743.015259,141.630661 743.019592,176.308914 743.023926,210.987167 
	C743.023926,210.987167 743.004578,210.923065 742.515503,211.020569 
	C733.171204,211.118073 724.315918,211.118073 715.524414,211.118073 
	C715.074097,205.790939 714.674377,201.062195 714.274658,196.333450 
	C713.974731,196.349579 713.674866,196.365723 713.374939,196.381851 
	C712.849609,197.546616 712.324280,198.711395 711.799011,199.876160 
	C697.908447,214.939667 677.959717,217.419022 660.025085,207.413071 
	C653.213562,203.612854 649.770874,198.145737 646.638672,190.983780 
	C645.574097,188.531479 644.829041,186.705444 644.083984,184.879410 
	C644.083984,184.879410 644.065979,184.968140 644.098633,184.605682 
	C644.131226,158.252548 644.131226,132.261887 644.131226,105.895203 
	C653.501282,105.895203 662.582764,105.877823 671.663635,105.942383 
	C672.159546,105.945900 672.650635,106.633080 673.076294,107.466888 
	C673.054993,127.606667 673.101318,147.281586 673.147583,166.956497 
	C673.367310,169.071152 673.587036,171.185806 673.895386,174.025757 
	C674.622131,176.215195 675.260254,177.679337 675.898438,179.143494 
	C675.898438,179.143478 675.921448,179.058350 675.946045,179.376251 
	C676.622070,180.502304 677.273438,181.310455 677.924744,182.118622 
	C677.924744,182.118622 677.970520,182.028793 678.018311,182.295532 
	C678.469788,182.880203 678.873535,183.198151 679.277222,183.516083 
	C679.277222,183.516098 679.435242,183.633667 679.655518,183.852905 
	C680.106262,184.273193 680.373962,184.385086 680.678955,184.407822 
	C680.678955,184.407822 680.840149,184.430176 680.995483,184.670563 
	C687.794067,188.131027 694.454041,189.115494 701.151672,185.060333 
z"/>
<path fill="#EB8900" opacity="1.000000" stroke="none" 
	d="
M510.331726,34.331776 
	C629.369995,34.032581 748.701660,34.022938 868.497314,34.028751 
	C867.227783,34.362576 865.494568,34.958969 863.761047,34.959629 
	C747.527954,35.003952 631.294922,35.001698 515.061829,34.985039 
	C513.582947,34.984825 512.104065,34.747810 510.331726,34.331776 
z"/>
<path fill="#ED8A00" opacity="1.000000" stroke="none" 
	d="
M862.687866,249.687653 
	C749.640930,249.983322 636.299988,249.985855 522.494019,249.977997 
	C523.760742,249.645264 525.492493,249.041504 527.224487,249.040802 
	C637.469849,248.996429 747.715210,248.999557 857.960571,249.017639 
	C859.438354,249.017868 860.916138,249.263428 862.687866,249.687653 
z"/>
<path fill="#F1A000" opacity="1.000000" stroke="none" 
	d="
M673.143921,107.002029 
	C672.650635,106.633080 672.159546,105.945900 671.663635,105.942383 
	C662.582764,105.877823 653.501282,105.895203 644.131226,105.895203 
	C644.131226,132.261887 644.131226,158.252548 644.143860,184.603775 
	C643.437744,181.829315 642.122192,178.699219 642.096191,175.558472 
	C641.914734,153.610046 642.089844,131.658707 641.922729,109.710037 
	C641.889954,105.416710 643.151672,103.745277 647.599365,103.916039 
	C655.160461,104.206329 662.743286,103.897720 670.310364,104.094070 
	C671.548035,104.126183 672.752075,105.456902 673.771240,106.591202 
	C673.570801,106.994987 673.143921,107.002037 673.143921,107.002029 
z"/>
<path fill="#F8A600" opacity="1.000000" stroke="none" 
	d="
M525.140991,211.255783 
	C534.534058,210.844238 543.981506,210.844238 554.028931,210.844238 
	C554.028931,209.376221 554.028687,207.771118 554.028931,206.166016 
	C554.031250,189.694473 553.980408,173.222626 554.077393,156.751648 
	C554.098877,153.114151 554.643616,149.479736 555.043030,145.433807 
	C555.427124,146.437973 555.962830,147.851532 555.966797,149.266617 
	C556.021240,168.560486 555.872803,187.856049 556.094116,207.147522 
	C556.147705,211.819199 554.593262,213.299057 550.039185,213.088699 
	C543.234253,212.774353 536.402588,213.082245 529.585876,212.943985 
	C528.114380,212.914139 526.658447,212.113129 525.140991,211.255783 
z"/>
<path fill="#F7A601" opacity="1.000000" stroke="none" 
	d="
M557.889526,113.134125 
	C557.124817,115.012253 555.949829,116.735855 554.116577,119.425194 
	C554.116577,101.019501 554.116577,83.720749 554.116577,65.903625 
	C544.765930,65.903625 535.856689,65.903625 526.484314,65.842522 
	C527.195679,65.186584 528.359497,64.102737 529.546509,64.076859 
	C536.851013,63.917633 544.162903,64.103554 551.467712,63.951733 
	C555.014832,63.878006 556.068298,65.455399 556.042419,68.769485 
	C555.941528,81.723778 555.945557,94.679848 556.068054,107.633774 
	C556.085022,109.420006 556.987000,111.197868 557.889526,113.134125 
z"/>
<path fill="#FFB900" opacity="1.000000" stroke="none" 
	d="
M762.965210,155.000000 
	C762.965332,173.627853 762.965332,191.755722 762.965332,209.883575 
	C762.736572,209.882935 762.507812,209.882309 762.279053,209.881683 
	C762.279053,162.365692 762.279053,114.849701 762.279053,67.333710 
	C762.507751,67.331688 762.736389,67.329674 762.965088,67.327652 
	C762.965088,96.385101 762.965088,125.442551 762.965210,155.000000 
z"/>
<path fill="#FECC00" opacity="1.000000" stroke="none" 
	d="
M524.876465,66.052231 
	C525.164429,114.057907 525.152283,162.039764 525.128418,210.486206 
	C524.818054,210.777298 524.519409,210.603821 524.107727,209.734955 
	C523.988159,161.361160 523.981506,113.682777 523.974854,66.004402 
	C524.175354,66.012398 524.375916,66.020401 524.876465,66.052231 
z"/>
<path fill="#EC8900" opacity="1.000000" stroke="none" 
	d="
M523.684875,66.302734 
	C523.981506,113.682777 523.988159,161.361160 523.980347,209.504379 
	C523.643921,208.572006 523.042053,207.175095 523.040588,205.777512 
	C522.991577,160.362442 522.997864,114.947296 523.016907,69.532173 
	C523.017334,68.555084 523.263367,67.578102 523.684875,66.302734 
z"/>
<path fill="#FED100" opacity="1.000000" stroke="none" 
	d="
M743.316345,210.691559 
	C743.019592,176.308914 743.015259,141.630661 743.010437,106.486053 
	C743.028076,105.853188 743.046143,105.686684 743.033936,105.260315 
	C743.003540,105.000458 743.026550,105.007843 743.026550,105.007843 
	C743.346069,106.244263 743.942871,107.480263 743.944763,108.717178 
	C743.995972,141.965195 743.988220,175.213318 743.970764,208.461395 
	C743.970459,209.106308 743.734680,209.751099 743.316345,210.691559 
z"/>
<path fill="#FAA600" opacity="1.000000" stroke="none" 
	d="
M795.997070,111.363884 
	C795.147278,113.088135 793.899170,114.572380 791.994324,116.837692 
	C791.994324,99.613937 791.994324,83.285706 791.958496,66.491791 
	C792.615051,67.622261 793.884094,69.209923 793.907715,70.815926 
	C794.079468,82.473381 793.932800,94.135345 794.071594,105.793686 
	C794.092834,107.576210 795.065979,109.347420 795.997070,111.363884 
z"/>
<path fill="#FEB000" opacity="1.000000" stroke="none" 
	d="
M624.159912,145.978928 
	C623.783142,141.272781 623.406433,136.566620 623.101013,131.441772 
	C624.110657,133.961639 625.836853,136.893372 625.862488,139.839844 
	C626.064148,163.057526 625.942383,186.278015 625.903748,209.497604 
	C625.903198,209.806992 625.688965,210.115997 625.272827,210.242493 
	C624.959900,194.460342 624.973145,178.860764 624.903137,163.261536 
	C624.895264,161.499588 624.417908,159.739731 624.158264,157.978912 
	C624.129028,157.541763 624.099792,157.104630 624.350464,156.024261 
	C624.473511,152.247009 624.316711,149.112976 624.159912,145.978928 
z"/>
<path fill="#FFB900" opacity="1.000000" stroke="none" 
	d="
M593.593628,144.295471 
	C593.936523,144.724121 594.027161,145.422852 594.040344,146.950287 
	C593.953247,168.854080 593.943542,189.929169 593.933838,211.004272 
	C593.933838,211.004272 593.455017,211.005798 593.223450,210.532516 
	C592.983154,189.717972 592.974426,169.376694 592.965698,149.035431 
	C593.090942,147.545471 593.216125,146.055511 593.593628,144.295471 
z"/>
<path fill="#F7AF01" opacity="1.000000" stroke="none" 
	d="
M607.810852,107.885735 
	C594.393555,101.398155 580.699646,100.903488 566.443726,107.123154 
	C566.555359,106.554886 566.896057,105.640068 567.539978,105.300758 
	C577.557861,100.021927 598.200745,99.108749 607.810852,107.885735 
z"/>
<path fill="#CF7E00" opacity="1.000000" stroke="none" 
	d="
M594.186890,211.021759 
	C593.943542,189.929169 593.953247,168.854080 594.039917,147.302979 
	C594.399597,148.931076 594.922607,151.034607 594.927612,153.139359 
	C594.972412,172.122864 594.926331,191.106598 594.927002,210.560745 
	C594.778137,211.033905 594.609070,211.036560 594.186890,211.021759 
z"/>
<path fill="#FFB900" opacity="1.000000" stroke="none" 
	d="
M713.101929,162.851654 
	C713.125793,164.625443 713.066284,165.911545 712.924744,167.578888 
	C712.562256,166.874847 712.039917,165.790161 712.037292,164.704193 
	C711.991943,146.074310 712.008057,127.444267 712.028015,108.814278 
	C712.028625,108.227829 712.214844,107.641586 713.018616,107.088432 
	C713.018616,125.513611 713.018616,143.938797 713.101929,162.851654 
z"/>
<path fill="#F6AE01" opacity="1.000000" stroke="none" 
	d="
M840.517700,106.174133 
	C828.673096,101.698334 816.797852,101.605927 804.476257,106.158936 
	C808.530640,104.604660 812.854919,102.280579 817.439514,101.515373 
	C825.493530,100.171082 833.378174,101.495247 840.517700,106.174133 
z"/>
<path fill="#ED8A00" opacity="1.000000" stroke="none" 
	d="
M592.674744,149.328186 
	C592.974426,169.376694 592.983154,189.717972 592.984131,210.527191 
	C592.651794,209.767334 592.048401,208.540405 592.044556,207.311584 
	C591.985901,188.725189 592.002197,170.138535 592.023438,151.551956 
	C592.024231,150.908157 592.258423,150.264603 592.674744,149.328186 
z"/>
<path fill="#FDC900" opacity="1.000000" stroke="none" 
	d="
M673.076294,107.466888 
	C673.143921,107.002037 673.570801,106.994987 673.784180,106.998077 
	C673.892273,126.777733 673.786987,146.554306 673.414612,166.643677 
	C673.101318,147.281586 673.054993,127.606667 673.076294,107.466888 
z"/>
<path fill="#D08701" opacity="1.000000" stroke="none" 
	d="
M712.128662,200.117249 
	C712.324280,198.711395 712.849609,197.546616 713.374939,196.381851 
	C713.674866,196.365723 713.974731,196.349579 714.274658,196.333450 
	C714.674377,201.062195 715.074097,205.790939 715.524414,211.118073 
	C724.315918,211.118073 733.171204,211.118073 742.482056,211.020447 
	C742.953796,211.117828 742.969910,211.312836 742.510437,211.804306 
	C733.043274,212.081070 724.051697,212.061356 715.060120,212.041626 
	C714.192871,208.147202 713.325562,204.252777 712.128662,200.117249 
z"/>
<path fill="#CF7E00" opacity="1.000000" stroke="none" 
	d="
M624.065979,158.441162 
	C624.417908,159.739731 624.895264,161.499588 624.903137,163.261536 
	C624.973145,178.860764 624.959900,194.460342 624.966736,210.528091 
	C624.962219,210.996353 624.483521,211.005936 624.244141,211.004425 
	C623.994385,193.636414 623.984009,176.269897 624.065979,158.441162 
z"/>
<path fill="#F4B301" opacity="1.000000" stroke="none" 
	d="
M865.629028,177.886719 
	C868.488953,165.983200 869.252258,153.942871 866.093018,141.418945 
	C867.029419,142.951340 868.667542,144.895447 868.642212,146.817612 
	C868.518799,156.167755 867.993591,165.514481 867.476318,174.854965 
	C867.420593,175.861328 866.495300,176.819534 865.629028,177.886719 
z"/>
<path fill="#EAAC01" opacity="1.000000" stroke="none" 
	d="
M700.714966,185.041641 
	C694.454041,189.115494 687.794067,188.131027 680.920532,184.638947 
	C687.219543,184.585602 693.748901,184.804276 700.714966,185.041641 
z"/>
<path fill="#FFBF00" opacity="1.000000" stroke="none" 
	d="
M743.006714,105.010551 
	C733.747986,105.020645 724.485962,105.020645 715.223999,105.020645 
	C715.223450,104.819885 715.222900,104.619118 715.222412,104.418358 
	C724.290894,104.418358 733.359436,104.418358 742.727234,104.713104 
	C743.026550,105.007843 743.003540,105.000458 743.006714,105.010551 
z"/>
<path fill="#CF7E00" opacity="1.000000" stroke="none" 
	d="
M594.970581,211.310822 
	C604.335571,211.065048 613.702026,211.076920 623.535828,211.047119 
	C624.008972,211.187805 624.014832,211.370178 623.530029,211.818085 
	C613.700684,212.082840 604.361816,212.082031 595.023010,212.081238 
	C595.005981,211.910324 594.989014,211.739395 594.970581,211.310822 
z"/>
<path fill="#FFBF00" opacity="1.000000" stroke="none" 
	d="
M595.328186,212.356644 
	C604.361816,212.082031 613.700684,212.082840 623.504578,212.090607 
	C619.610718,212.395401 615.254639,212.873520 610.892029,212.943985 
	C605.808777,213.026123 600.719849,212.751740 595.328186,212.356644 
z"/>
<path fill="#FFBF00" opacity="1.000000" stroke="none" 
	d="
M715.350220,212.330353 
	C724.051697,212.061356 733.043274,212.081070 742.499084,212.097580 
	C738.279297,212.393280 733.598511,212.850311 728.910400,212.945297 
	C724.491089,213.034821 720.063965,212.743088 715.350220,212.330353 
z"/>
<path fill="#FFB900" opacity="1.000000" stroke="none" 
	d="
M785.640869,64.981804 
	C778.470398,64.981499 771.751709,64.981499 765.033020,64.981499 
	C765.037170,64.744469 765.041260,64.507431 765.045410,64.270401 
	C773.341125,64.270401 781.636780,64.270401 789.932495,64.270401 
	C789.937012,64.448311 789.941467,64.626213 789.945923,64.804123 
	C788.661499,64.863457 787.377014,64.922783 785.640869,64.981804 
z"/>
<path fill="#FFBF00" opacity="1.000000" stroke="none" 
	d="
M769.369507,212.992996 
	C767.625793,212.925919 766.328064,212.859009 765.030273,212.792099 
	C765.034241,212.627380 765.038147,212.462646 765.042053,212.297928 
	C773.289307,212.297928 781.536560,212.297928 789.783752,212.297928 
	C789.789368,212.529678 789.794983,212.761429 789.800537,212.993179 
	C783.138855,212.993179 776.477112,212.993179 769.369507,212.992996 
z"/>
<path fill="#F1A000" opacity="1.000000" stroke="none" 
	d="
M644.058472,185.260208 
	C644.829041,186.705444 645.574097,188.531479 646.429565,190.674332 
	C645.704224,189.207764 644.868591,187.424393 644.058472,185.260208 
z"/>
<path fill="#F7A601" opacity="1.000000" stroke="none" 
	d="
M563.150085,109.054062 
	C562.051697,110.053795 560.953247,111.053528 559.562317,112.180801 
	C559.966125,111.296761 560.662476,110.285179 561.964111,109.146393 
	C562.762939,109.030815 562.956543,109.042442 563.150085,109.054062 
z"/>
<path fill="#EAAC01" opacity="1.000000" stroke="none" 
	d="
M675.927429,178.781616 
	C675.260254,177.679337 674.622131,176.215195 674.037720,174.398788 
	C674.713135,175.504272 675.334778,176.961990 675.927429,178.781616 
z"/>
<path fill="#F6AE01" opacity="1.000000" stroke="none" 
	d="
M843.819824,107.853394 
	C843.009155,107.789772 842.091370,107.386368 840.954956,106.785934 
	C841.728394,106.897148 842.720581,107.205383 843.819824,107.853394 
z"/>
<path fill="#F6AE01" opacity="1.000000" stroke="none" 
	d="
M801.840271,107.118851 
	C801.351685,107.769104 800.510254,108.398209 799.362549,109.131027 
	C799.866638,108.522392 800.677063,107.810043 801.840271,107.118851 
z"/>
<path fill="#F7AF01" opacity="1.000000" stroke="none" 
	d="
M610.825195,110.013977 
	C609.977722,109.812859 609.047974,109.262619 607.959961,108.428406 
	C608.782043,108.651230 609.762512,109.158043 610.825195,110.013977 
z"/>
<path fill="#F6AE01" opacity="1.000000" stroke="none" 
	d="
M849.814697,111.893646 
	C848.993774,111.696808 848.085022,111.166290 847.027466,110.354538 
	C847.828125,110.568848 848.777466,111.064407 849.814697,111.893646 
z"/>
<path fill="#EAAC01" opacity="1.000000" stroke="none" 
	d="
M677.925781,181.777740 
	C677.273438,181.310455 676.622070,180.502304 675.902100,179.379669 
	C676.531311,179.855759 677.229126,180.646317 677.925781,181.777740 
z"/>
<path fill="#F7AF01" opacity="1.000000" stroke="none" 
	d="
M563.395020,109.009621 
	C562.956543,109.042442 562.762939,109.030815 562.278564,109.008469 
	C562.541565,108.711937 563.095459,108.426117 563.978271,108.212051 
	C564.220520,108.643829 563.998047,108.870949 563.395020,109.009621 
z"/>
<path fill="#F6AE01" opacity="1.000000" stroke="none" 
	d="
M803.854492,106.118553 
	C803.691589,106.465324 803.195068,106.791656 802.388184,107.176147 
	C802.558777,106.855568 803.039795,106.476837 803.854492,106.118553 
z"/>
<path fill="#F7AF01" opacity="1.000000" stroke="none" 
	d="
M565.831299,107.105591 
	C565.709229,107.488663 565.248413,107.860939 564.483887,108.302704 
	C564.617676,107.946396 565.055176,107.520599 565.831299,107.105591 
z"/>
<path fill="#F6AE01" opacity="1.000000" stroke="none" 
	d="
M845.738525,109.031548 
	C845.259949,109.123154 844.695068,108.889229 843.982056,108.384766 
	C844.440002,108.311493 845.046143,108.508751 845.738525,109.031548 
z"/>
<path fill="#EAAC01" opacity="1.000000" stroke="none" 
	d="
M679.392212,183.203827 
	C678.873535,183.198151 678.469788,182.880203 677.973572,182.318817 
	C678.423157,182.347443 678.965210,182.619507 679.392212,183.203827 
z"/>
<path fill="#ED8A00" opacity="1.000000" stroke="none" 
	d="
M518.898254,249.813431 
	C518.984192,249.974915 518.499695,249.990341 518.257568,249.983490 
	C518.281128,249.868423 518.546692,249.760178 518.898254,249.813431 
z"/>
<path fill="#FAA600" opacity="1.000000" stroke="none" 
	d="
M796.893616,110.875565 
	C797.014526,111.043465 796.894531,111.321007 796.759033,111.384323 
	C796.537170,111.196350 796.450928,110.945053 796.364624,110.693764 
	C796.500671,110.698395 796.636658,110.703033 796.893616,110.875565 
z"/>
<path fill="#EAAC01" opacity="1.000000" stroke="none" 
	d="
M680.657104,184.109589 
	C680.373962,184.385086 680.106262,184.273193 679.741943,183.900146 
	C679.950378,183.755875 680.292786,183.783615 680.657104,184.109589 
z"/>
<path fill="#F6AE01" opacity="1.000000" stroke="none" 
	d="
M850.832642,112.963715 
	C850.612183,113.034111 850.296814,112.831429 849.883301,112.359360 
	C850.102661,112.290207 850.420227,112.490425 850.832642,112.963715 
z"/>
<path fill="#F7A601" opacity="1.000000" stroke="none" 
	d="
M559.027466,112.258369 
	C559.126282,112.513557 558.931274,112.822388 558.471924,113.226974 
	C558.382874,112.985825 558.558289,112.648918 559.027466,112.258369 
z"/>
<path fill="#F6AE01" opacity="1.000000" stroke="none" 
	d="
M846.839111,109.871063 
	C846.614563,109.992241 846.272949,109.852844 845.811157,109.460434 
	C846.034668,109.341782 846.378357,109.476128 846.839111,109.871063 
z"/>
<path fill="#020202" opacity="1.000000" stroke="none" 
	d="
M194.647461,197.709778 
	C187.546768,194.322647 184.379288,189.276459 185.015564,182.772964 
	C185.615067,176.645309 190.135880,171.633698 197.041656,169.986969 
	C204.418457,168.227936 211.891388,166.874542 219.280411,165.163071 
	C222.125229,164.504135 224.854538,163.346588 227.981766,162.300766 
	C227.981766,168.148422 228.275665,173.925186 227.920670,179.661789 
	C227.178558,191.654129 212.880081,201.086731 199.405319,198.715912 
	C197.936768,198.457535 196.475174,198.159576 194.647461,197.709778 
z"/>
<path fill="#F69700" opacity="1.000000" stroke="none" 
	d="
M832.947266,177.984406 
	C831.514282,179.933380 830.081299,181.882355 828.207153,183.757904 
	C827.673584,183.938980 827.581116,184.193497 827.488647,184.448029 
	C827.488708,184.448029 827.387939,184.442062 827.086243,184.380615 
	C826.553162,184.617737 826.321777,184.916321 826.090393,185.214905 
	C826.090393,185.214890 826.080505,185.103210 825.797058,185.102142 
	C825.051025,185.500488 824.588501,185.899902 824.125916,186.299301 
	C824.125916,186.299301 824.087769,186.172058 823.704834,186.119064 
	C817.148010,186.097168 810.974060,186.128281 804.800171,186.159393 
	C804.800171,186.159393 804.905640,186.147644 804.838379,185.929962 
	C804.511169,185.475555 804.251221,185.238846 803.710083,185.012207 
	C803.243408,185.049484 803.057861,185.076691 802.872253,185.103912 
	C802.872253,185.103912 802.962402,185.103165 802.825317,184.878448 
	C802.334900,184.578369 801.981628,184.503021 801.628357,184.427689 
	C801.628357,184.427689 801.560364,184.367630 801.606445,184.055161 
	C800.944092,183.394196 800.235535,183.045685 799.527039,182.697174 
	C799.527039,182.697189 799.458130,182.569794 799.519409,182.158691 
	C798.416077,179.392395 796.778137,177.152161 796.173096,174.661057 
	C794.098694,166.119843 792.830078,157.471985 794.876160,148.692474 
	C795.876831,144.398636 796.846375,140.097534 797.829956,135.799713 
	C797.829956,135.799713 797.860413,135.897659 798.140625,135.808044 
	C798.680237,135.007095 798.939575,134.295761 799.198853,133.584412 
	C799.198853,133.584412 799.354431,133.343048 799.727051,133.425262 
	C800.185669,133.418228 800.347046,133.325043 800.342651,133.240479 
	C800.331970,133.036194 800.243896,132.835953 800.187012,132.634079 
	C800.187012,132.634079 800.308411,132.367691 800.734985,132.447998 
	C801.700989,131.909225 802.240417,131.290115 802.779785,130.671005 
	C802.779785,130.671005 802.894165,130.807968 803.227783,130.848572 
	C807.854736,130.258255 812.131287,129.365829 816.447266,129.088516 
	C819.313354,128.904343 822.236023,129.599808 825.133362,129.901520 
	C825.133362,129.901520 825.051147,129.943390 825.151367,130.153168 
	C825.550171,130.552063 825.848694,130.741196 826.147278,130.930328 
	C826.147278,130.930344 826.050903,130.937805 826.164368,131.209106 
	C826.996460,131.720901 827.715088,131.961380 828.433716,132.201874 
	C828.433716,132.201859 828.653381,132.362656 828.569702,132.733887 
	C828.781799,133.138367 829.077576,133.171631 829.373413,133.204880 
	C829.373413,133.204880 829.610229,133.328400 829.531006,133.757935 
	C830.309937,135.469086 831.168091,136.750671 832.021362,138.416901 
	C835.856018,148.355637 837.251831,158.153259 834.995667,168.325775 
	C834.283081,171.538727 833.628418,174.764511 832.947266,177.984406 
z"/>
<path fill="#EBA301" opacity="1.000000" stroke="none" 
	d="
M797.526978,135.985870 
	C796.846375,140.097534 795.876831,144.398636 794.876160,148.692474 
	C792.830078,157.471985 794.098694,166.119843 796.173096,174.661057 
	C796.778137,177.152161 798.416077,179.392395 799.463257,182.112854 
	C793.318359,176.431320 792.787048,168.490814 792.413574,160.752975 
	C792.004028,152.266388 792.815918,143.813538 797.526978,135.985870 
z"/>
<path fill="#F6AE01" opacity="1.000000" stroke="none" 
	d="
M833.171509,177.699463 
	C833.628418,174.764511 834.283081,171.538727 834.995667,168.325775 
	C837.251831,158.153259 835.856018,148.355637 832.195557,138.415649 
	C832.374817,138.029755 832.723938,138.020538 832.723938,138.020538 
	C838.929626,151.049850 839.086670,164.182312 833.171509,177.699463 
z"/>
<path fill="#EBA301" opacity="1.000000" stroke="none" 
	d="
M824.922241,129.591827 
	C822.236023,129.599808 819.313354,128.904343 816.447266,129.088516 
	C812.131287,129.365829 807.854736,130.258255 803.147461,130.809723 
	C809.767395,125.816360 817.130676,125.901352 824.922241,129.591827 
z"/>
<path fill="#F4B301" opacity="1.000000" stroke="none" 
	d="
M805.033997,186.457214 
	C810.974060,186.128281 817.148010,186.097168 823.770752,186.127411 
	C817.989929,189.310471 811.656860,188.968613 805.033997,186.457214 
z"/>
<path fill="#EBA301" opacity="1.000000" stroke="none" 
	d="
M832.650818,137.716125 
	C832.723938,138.020538 832.374817,138.029755 832.200562,138.031006 
	C831.168091,136.750671 830.309937,135.469086 829.608643,133.866577 
	C830.702881,134.834351 831.640320,136.123032 832.650818,137.716125 
z"/>
<path fill="#EBA301" opacity="1.000000" stroke="none" 
	d="
M802.505859,130.738266 
	C802.240417,131.290115 801.700989,131.909225 800.855591,132.365021 
	C801.110352,131.736313 801.671082,131.270920 802.505859,130.738266 
z"/>
<path fill="#EBA301" opacity="1.000000" stroke="none" 
	d="
M798.995911,133.768265 
	C798.939575,134.295761 798.680237,135.007095 798.090576,135.796829 
	C798.104492,135.234192 798.448730,134.593155 798.995911,133.768265 
z"/>
<path fill="#EBA301" opacity="1.000000" stroke="none" 
	d="
M799.680969,182.925323 
	C800.235535,183.045685 800.944092,183.394196 801.617920,184.099045 
	C801.000427,184.021423 800.417664,183.587433 799.680969,182.925323 
z"/>
<path fill="#EBA301" opacity="1.000000" stroke="none" 
	d="
M828.262207,131.977829 
	C827.715088,131.961380 826.996460,131.720901 826.172852,131.161530 
	C826.742126,131.146362 827.416382,131.450073 828.262207,131.977829 
z"/>
<path fill="#F4B301" opacity="1.000000" stroke="none" 
	d="
M824.435486,186.243866 
	C824.588501,185.899902 825.051025,185.500488 825.851074,185.117310 
	C825.707336,185.485184 825.226196,185.836823 824.435486,186.243866 
z"/>
<path fill="#F4B301" opacity="1.000000" stroke="none" 
	d="
M827.654297,184.385345 
	C827.581116,184.193497 827.673584,183.938980 827.885498,183.852554 
	C828.004944,184.020645 827.819946,184.322678 827.654297,184.385345 
z"/>
<path fill="#EBA301" opacity="1.000000" stroke="none" 
	d="
M829.306763,133.074570 
	C829.077576,133.171631 828.781799,133.138367 828.628906,132.856430 
	C828.963318,132.670746 829.119446,132.782913 829.306763,133.074570 
z"/>
<path fill="#EBA301" opacity="1.000000" stroke="none" 
	d="
M826.057800,130.670013 
	C825.848694,130.741196 825.550171,130.552063 825.158325,130.107574 
	C825.366089,130.038025 825.667236,130.223846 826.057800,130.670013 
z"/>
<path fill="#EBA301" opacity="1.000000" stroke="none" 
	d="
M801.776855,184.643250 
	C801.981628,184.503021 802.334900,184.578369 802.802979,184.917633 
	C802.587036,185.073944 802.256165,184.966370 801.776855,184.643250 
z"/>
<path fill="#EBA301" opacity="1.000000" stroke="none" 
	d="
M800.063232,132.700806 
	C800.243896,132.835953 800.331970,133.036194 800.342651,133.240479 
	C800.347046,133.325043 800.185669,133.418228 799.855713,133.361496 
	C799.677917,133.034729 799.787170,132.885406 800.063232,132.700806 
z"/>
<path fill="#F4B301" opacity="1.000000" stroke="none" 
	d="
M826.359192,185.146881 
	C826.321777,184.916321 826.553162,184.617737 827.083984,184.330170 
	C827.131531,184.587082 826.879761,184.832962 826.359192,185.146881 
z"/>
<path fill="#F4B301" opacity="1.000000" stroke="none" 
	d="
M803.991211,185.002136 
	C804.251221,185.238846 804.511169,185.475555 804.819092,185.979370 
	C804.867004,186.246475 804.406738,186.168304 804.201965,185.816422 
	C803.997192,185.464539 803.991211,185.002136 803.991211,185.002136 
z"/>
<path fill="#EBA301" opacity="1.000000" stroke="none" 
	d="
M803.710083,185.012207 
	C803.991211,185.002136 803.997192,185.464539 804.002319,185.695496 
	C803.692078,185.817078 803.376709,185.707718 802.966797,185.351135 
	C803.057861,185.076691 803.243408,185.049484 803.710083,185.012207 
z"/>
<path fill="#CF7E00" opacity="1.000000" stroke="none" 
	d="
M624.067871,146.427292 
	C624.316711,149.112976 624.473511,152.247009 624.393860,155.697830 
	C624.096802,152.968292 624.036316,149.921967 624.067871,146.427292 
z"/>
</svg>